<svg xmlns="http://www.w3.org/2000/svg" width="128" height="128" viewBox="0 0 128 128" fill="none">
  <defs>
    <linearGradient id="lissajous-stroke" x1="18" y1="110" x2="110" y2="18" gradientUnits="userSpaceOnUse">
      <stop offset="0" stop-color="#f2a93b"/>
      <stop offset="1" stop-color="#3fcfe0"/>
    </linearGradient>
  </defs>
  <rect width="128" height="128" rx="28" fill="#13110e"/>
  <path d="M 110.0,64.0 L 109.6,68.1 L 108.3,72.2 L 106.3,76.2 L 103.5,80.2 L 100.0,84.0 L 95.8,87.6 L 91.0,91.0 L 85.8,94.3 L 80.2,97.2 L 74.2,100.0 L 68.1,102.4 L 61.9,104.5 L 55.8,106.3 L 49.8,107.7 L 44.0,108.8 L 38.7,109.6 L 33.7,110.0 L 29.4,110.0 L 25.6,109.6 L 22.6,108.8 L 20.3,107.7 L 18.7,106.3 L 18.0,104.5 L 18.2,102.4 L 19.2,100.0 L 20.9,97.2 L 23.5,94.3 L 26.8,91.0 L 30.8,87.6 L 35.3,84.0 L 40.4,80.2 L 45.9,76.2 L 51.8,72.2 L 57.8,68.1 L 64.0,64.0 L 70.2,59.9 L 76.2,55.8 L 82.1,51.8 L 87.6,47.8 L 92.7,44.0 L 97.2,40.4 L 101.2,37.0 L 104.5,33.7 L 107.1,30.8 L 108.8,28.0 L 109.8,25.6 L 110.0,23.5 L 109.3,21.7 L 107.7,20.3 L 105.4,19.2 L 102.4,18.4 L 98.6,18.0 L 94.3,18.0 L 89.3,18.4 L 84.0,19.2 L 78.2,20.3 L 72.2,21.7 L 66.1,23.5 L 59.9,25.6 L 53.8,28.0 L 47.8,30.8 L 42.2,33.7 L 37.0,37.0 L 32.2,40.4 L 28.0,44.0 L 24.5,47.8 L 21.7,51.8 L 19.7,55.8 L 18.4,59.9 L 18.0,64.0 L 18.4,68.1 L 19.7,72.2 L 21.7,76.2 L 24.5,80.2 L 28.0,84.0 L 32.2,87.6 L 37.0,91.0 L 42.2,94.3 L 47.8,97.2 L 53.8,100.0 L 59.9,102.4 L 66.1,104.5 L 72.2,106.3 L 78.2,107.7 L 84.0,108.8 L 89.3,109.6 L 94.3,110.0 L 98.6,110.0 L 102.4,109.6 L 105.4,108.8 L 107.7,107.7 L 109.3,106.3 L 110.0,104.5 L 109.8,102.4 L 108.8,100.0 L 107.1,97.2 L 104.5,94.3 L 101.2,91.0 L 97.2,87.6 L 92.7,84.0 L 87.6,80.2 L 82.1,76.2 L 76.2,72.2 L 70.2,68.1 L 64.0,64.0 L 57.8,59.9 L 51.8,55.8 L 45.9,51.8 L 40.4,47.8 L 35.3,44.0 L 30.8,40.4 L 26.8,37.0 L 23.5,33.7 L 20.9,30.8 L 19.2,28.0 L 18.2,25.6 L 18.0,23.5 L 18.7,21.7 L 20.3,20.3 L 22.6,19.2 L 25.6,18.4 L 29.4,18.0 L 33.7,18.0 L 38.7,18.4 L 44.0,19.2 L 49.8,20.3 L 55.8,21.7 L 61.9,23.5 L 68.1,25.6 L 74.2,28.0 L 80.2,30.8 L 85.8,33.7 L 91.0,37.0 L 95.8,40.4 L 100.0,44.0 L 103.5,47.8 L 106.3,51.8 L 108.3,55.8 L 109.6,59.9 L 110.0,64.0"
    fill="none" stroke="url(#lissajous-stroke)" stroke-width="5" stroke-linecap="round" stroke-linejoin="round"/>
</svg>
